<mxfile host="app.diagrams.net" modified="2021-09-10T15:45:58.866Z" agent="5.0 (Windows NT 10.0; Win64; x64) AppleWebKit/537.36 (KHTML, like Gecko) Chrome/91.0.4472.124 Safari/537.36" etag="u0uIgaXW4X7AmULnH8KQ" version="15.1.4" type="github">
  <diagram id="ThNpcdXf9u6KQCxS-iJN" name="Page-1">
    <mxGraphModel dx="755" dy="408" grid="1" gridSize="10" guides="1" tooltips="1" connect="1" arrows="1" fold="1" page="1" pageScale="1" pageWidth="827" pageHeight="1169" math="0" shadow="0">
      <root>
        <mxCell id="0" />
        <mxCell id="1" parent="0" />
        <mxCell id="Gtxbro2aduNxYF44NZKF-1" value="8&amp;nbsp;" style="rounded=0;whiteSpace=wrap;html=1;" vertex="1" parent="1">
          <mxGeometry x="630" y="555" width="40" height="30" as="geometry" />
        </mxCell>
        <mxCell id="Gtxbro2aduNxYF44NZKF-2" value="4" style="rounded=0;whiteSpace=wrap;html=1;" vertex="1" parent="1">
          <mxGeometry x="430" y="555" width="40" height="30" as="geometry" />
        </mxCell>
        <mxCell id="Gtxbro2aduNxYF44NZKF-3" value="3" style="rounded=0;whiteSpace=wrap;html=1;" vertex="1" parent="1">
          <mxGeometry x="380" y="555" width="40" height="30" as="geometry" />
        </mxCell>
        <mxCell id="Gtxbro2aduNxYF44NZKF-4" value="2" style="rounded=0;whiteSpace=wrap;html=1;" vertex="1" parent="1">
          <mxGeometry x="330" y="555" width="40" height="30" as="geometry" />
        </mxCell>
        <mxCell id="Gtxbro2aduNxYF44NZKF-5" value="1" style="rounded=0;whiteSpace=wrap;html=1;" vertex="1" parent="1">
          <mxGeometry x="280" y="555" width="40" height="30" as="geometry" />
        </mxCell>
        <mxCell id="Gtxbro2aduNxYF44NZKF-6" value="0" style="rounded=0;whiteSpace=wrap;html=1;" vertex="1" parent="1">
          <mxGeometry x="230" y="555" width="40" height="30" as="geometry" />
        </mxCell>
        <mxCell id="Gtxbro2aduNxYF44NZKF-7" value="5" style="rounded=0;whiteSpace=wrap;html=1;" vertex="1" parent="1">
          <mxGeometry x="480" y="555" width="40" height="30" as="geometry" />
        </mxCell>
        <mxCell id="Gtxbro2aduNxYF44NZKF-8" value="6" style="rounded=0;whiteSpace=wrap;html=1;" vertex="1" parent="1">
          <mxGeometry x="530" y="555" width="40" height="30" as="geometry" />
        </mxCell>
        <mxCell id="Gtxbro2aduNxYF44NZKF-9" value="7" style="rounded=0;whiteSpace=wrap;html=1;" vertex="1" parent="1">
          <mxGeometry x="580" y="555" width="40" height="30" as="geometry" />
        </mxCell>
        <mxCell id="Gtxbro2aduNxYF44NZKF-10" value="3" style="rounded=0;whiteSpace=wrap;html=1;" vertex="1" parent="1">
          <mxGeometry x="630" y="515" width="40" height="30" as="geometry" />
        </mxCell>
        <mxCell id="Gtxbro2aduNxYF44NZKF-11" value="3" style="rounded=0;whiteSpace=wrap;html=1;" vertex="1" parent="1">
          <mxGeometry x="430" y="515" width="40" height="30" as="geometry" />
        </mxCell>
        <mxCell id="Gtxbro2aduNxYF44NZKF-12" value="A" style="rounded=0;whiteSpace=wrap;html=1;" vertex="1" parent="1">
          <mxGeometry x="230" y="475" width="240" height="30" as="geometry" />
        </mxCell>
        <mxCell id="Gtxbro2aduNxYF44NZKF-13" value="B" style="rounded=0;whiteSpace=wrap;html=1;" vertex="1" parent="1">
          <mxGeometry x="480" y="475" width="190" height="30" as="geometry" />
        </mxCell>
        <mxCell id="Gtxbro2aduNxYF44NZKF-14" value="0" style="rounded=0;whiteSpace=wrap;html=1;" vertex="1" parent="1">
          <mxGeometry x="230" y="515" width="40" height="30" as="geometry" />
        </mxCell>
        <mxCell id="Gtxbro2aduNxYF44NZKF-15" value="2" style="rounded=0;whiteSpace=wrap;html=1;" vertex="1" parent="1">
          <mxGeometry x="380" y="515" width="40" height="30" as="geometry" />
        </mxCell>
        <mxCell id="Gtxbro2aduNxYF44NZKF-16" value="1" style="rounded=0;whiteSpace=wrap;html=1;" vertex="1" parent="1">
          <mxGeometry x="280" y="515" width="90" height="30" as="geometry" />
        </mxCell>
        <mxCell id="Gtxbro2aduNxYF44NZKF-19" value="2" style="rounded=0;whiteSpace=wrap;html=1;" vertex="1" parent="1">
          <mxGeometry x="530" y="515" width="90" height="30" as="geometry" />
        </mxCell>
        <mxCell id="Gtxbro2aduNxYF44NZKF-20" value="1" style="rounded=0;whiteSpace=wrap;html=1;" vertex="1" parent="1">
          <mxGeometry x="480" y="515" width="40" height="30" as="geometry" />
        </mxCell>
        <mxCell id="Gtxbro2aduNxYF44NZKF-21" value="SEP" style="rounded=0;whiteSpace=wrap;html=1;" vertex="1" parent="1">
          <mxGeometry x="630" y="435" width="40" height="30" as="geometry" />
        </mxCell>
        <mxCell id="Gtxbro2aduNxYF44NZKF-22" value="Gn" style="rounded=0;whiteSpace=wrap;html=1;" vertex="1" parent="1">
          <mxGeometry x="580" y="435" width="40" height="30" as="geometry" />
        </mxCell>
        <mxCell id="Gtxbro2aduNxYF44NZKF-23" value="G2" style="rounded=0;whiteSpace=wrap;html=1;" vertex="1" parent="1">
          <mxGeometry x="530" y="435" width="40" height="30" as="geometry" />
        </mxCell>
        <mxCell id="Gtxbro2aduNxYF44NZKF-24" value="G1" style="rounded=0;whiteSpace=wrap;html=1;" vertex="1" parent="1">
          <mxGeometry x="480" y="435" width="40" height="30" as="geometry" />
        </mxCell>
        <mxCell id="Gtxbro2aduNxYF44NZKF-25" value="SEP" style="rounded=0;whiteSpace=wrap;html=1;" vertex="1" parent="1">
          <mxGeometry x="430" y="435" width="40" height="30" as="geometry" />
        </mxCell>
        <mxCell id="Gtxbro2aduNxYF44NZKF-26" value="Pn" style="rounded=0;whiteSpace=wrap;html=1;" vertex="1" parent="1">
          <mxGeometry x="380" y="435" width="40" height="30" as="geometry" />
        </mxCell>
        <mxCell id="Gtxbro2aduNxYF44NZKF-27" value="P2" style="rounded=0;whiteSpace=wrap;html=1;" vertex="1" parent="1">
          <mxGeometry x="330" y="435" width="40" height="30" as="geometry" />
        </mxCell>
        <mxCell id="Gtxbro2aduNxYF44NZKF-28" value="P1" style="rounded=0;whiteSpace=wrap;html=1;" vertex="1" parent="1">
          <mxGeometry x="280" y="435" width="40" height="30" as="geometry" />
        </mxCell>
        <mxCell id="Gtxbro2aduNxYF44NZKF-29" value="CLS" style="rounded=0;whiteSpace=wrap;html=1;" vertex="1" parent="1">
          <mxGeometry x="230" y="435" width="40" height="30" as="geometry" />
        </mxCell>
        <mxCell id="Gtxbro2aduNxYF44NZKF-33" value="" style="shape=singleArrow;direction=north;whiteSpace=wrap;html=1;arrowWidth=0.47171173095703123;arrowSize=0.5662455240885417;" vertex="1" parent="1">
          <mxGeometry x="435" y="405" width="30" height="20" as="geometry" />
        </mxCell>
        <mxCell id="Gtxbro2aduNxYF44NZKF-37" style="edgeStyle=orthogonalEdgeStyle;rounded=0;orthogonalLoop=1;jettySize=auto;html=1;exitX=0.5;exitY=0;exitDx=0;exitDy=0;entryX=0.5;entryY=1;entryDx=0;entryDy=0;" edge="1" parent="1" source="Gtxbro2aduNxYF44NZKF-34" target="Gtxbro2aduNxYF44NZKF-36">
          <mxGeometry relative="1" as="geometry" />
        </mxCell>
        <mxCell id="Gtxbro2aduNxYF44NZKF-34" value="Masking" style="rounded=0;whiteSpace=wrap;html=1;" vertex="1" parent="1">
          <mxGeometry x="230" y="365" width="440" height="30" as="geometry" />
        </mxCell>
        <mxCell id="Gtxbro2aduNxYF44NZKF-36" value="Transformer" style="rounded=0;whiteSpace=wrap;html=1;" vertex="1" parent="1">
          <mxGeometry x="230" y="315" width="440" height="30" as="geometry" />
        </mxCell>
        <mxCell id="Gtxbro2aduNxYF44NZKF-38" value="" style="shape=curlyBracket;whiteSpace=wrap;html=1;rounded=1;rotation=90;" vertex="1" parent="1">
          <mxGeometry x="455" y="115" width="42.5" height="350" as="geometry" />
        </mxCell>
        <mxCell id="Gtxbro2aduNxYF44NZKF-40" value="MLM&lt;br&gt;objective" style="text;html=1;strokeColor=none;fillColor=none;align=center;verticalAlign=middle;whiteSpace=wrap;rounded=0;" vertex="1" parent="1">
          <mxGeometry x="452.5" y="235" width="45" height="30" as="geometry" />
        </mxCell>
        <mxCell id="Gtxbro2aduNxYF44NZKF-43" value="" style="endArrow=classic;html=1;" edge="1" parent="1">
          <mxGeometry width="50" height="50" relative="1" as="geometry">
            <mxPoint x="249.66" y="311.25" as="sourcePoint" />
            <mxPoint x="250" y="271.25" as="targetPoint" />
            <Array as="points" />
          </mxGeometry>
        </mxCell>
        <mxCell id="Gtxbro2aduNxYF44NZKF-44" value="classification&lt;br&gt;objective" style="text;html=1;strokeColor=none;fillColor=none;align=center;verticalAlign=middle;whiteSpace=wrap;rounded=0;" vertex="1" parent="1">
          <mxGeometry x="210" y="238.75" width="80" height="26.25" as="geometry" />
        </mxCell>
        <mxCell id="Gtxbro2aduNxYF44NZKF-45" value="tokens" style="text;html=1;strokeColor=none;fillColor=none;align=center;verticalAlign=middle;whiteSpace=wrap;rounded=0;" vertex="1" parent="1">
          <mxGeometry x="170" y="440" width="40" height="20" as="geometry" />
        </mxCell>
        <mxCell id="Gtxbro2aduNxYF44NZKF-46" value="segments" style="text;html=1;strokeColor=none;fillColor=none;align=center;verticalAlign=middle;whiteSpace=wrap;rounded=0;" vertex="1" parent="1">
          <mxGeometry x="150" y="480" width="60" height="20" as="geometry" />
        </mxCell>
        <mxCell id="Gtxbro2aduNxYF44NZKF-47" value="word positions" style="text;html=1;strokeColor=none;fillColor=none;align=center;verticalAlign=middle;whiteSpace=wrap;rounded=0;" vertex="1" parent="1">
          <mxGeometry x="120" y="520" width="90" height="20" as="geometry" />
        </mxCell>
        <mxCell id="Gtxbro2aduNxYF44NZKF-48" value="token positions" style="text;html=1;strokeColor=none;fillColor=none;align=center;verticalAlign=middle;whiteSpace=wrap;rounded=0;" vertex="1" parent="1">
          <mxGeometry x="120" y="560" width="90" height="20" as="geometry" />
        </mxCell>
        <mxCell id="Gtxbro2aduNxYF44NZKF-53" value="+" style="text;html=1;strokeColor=none;fillColor=none;align=center;verticalAlign=middle;whiteSpace=wrap;rounded=0;" vertex="1" parent="1">
          <mxGeometry x="180" y="460" width="20" height="20" as="geometry" />
        </mxCell>
        <mxCell id="Gtxbro2aduNxYF44NZKF-54" value="+" style="text;html=1;strokeColor=none;fillColor=none;align=center;verticalAlign=middle;whiteSpace=wrap;rounded=0;" vertex="1" parent="1">
          <mxGeometry x="180" y="500" width="20" height="20" as="geometry" />
        </mxCell>
        <mxCell id="Gtxbro2aduNxYF44NZKF-55" value="+" style="text;html=1;strokeColor=none;fillColor=none;align=center;verticalAlign=middle;whiteSpace=wrap;rounded=0;" vertex="1" parent="1">
          <mxGeometry x="180" y="540" width="20" height="20" as="geometry" />
        </mxCell>
      </root>
    </mxGraphModel>
  </diagram>
</mxfile>
